<?xml version="1.0" encoding="utf-8"?>
<!-- Generator: Adobe Illustrator 21.0.1, SVG Export Plug-In . SVG Version: 6.00 Build 0)  -->
<svg version="1.1" id="HORIZONTAL_x5F_LOCKUPS" xmlns="http://www.w3.org/2000/svg" xmlns:xlink="http://www.w3.org/1999/xlink"
	 x="0px" y="0px" viewBox="0 0 206.6 49.1" style="enable-background:new 0 0 206.6 49.1;" xml:space="preserve">
<style type="text/css">
	.st0{fill:#FFFFFF;}
	.st1{fill:#DCDBDB;}
	.st2{fill:#B0AFAF;}
	.st3{fill:#848383;}
	.st4{fill:#585858;}
	.st5{fill:#2C2C2C;}
	.st6{fill:#2FD19B;}
</style>
<g>
	<g>
		<circle class="st0" cx="23.6" cy="23.6" r="23.6"/>
		<g>
			<path d="M66.3,10.1c5.4,0,7.4,0.8,9,2.1c2.3,1.9,3.4,4.8,3.4,7.8c0,3-1.2,6.1-3.1,7.7c-2,1.7-4,2.5-8.5,2.5h-2.9v9.2h-7.5V10.1
				H66.3z M64.2,23.6H67c0.7,0,1.9,0,2.9-0.4c1-0.4,1.8-1.3,1.8-3.1c0-1.7-0.8-2.6-1.9-3c-1-0.4-2.3-0.4-3.1-0.4h-2.5V23.6z"/>
			<path d="M79,28.3c0-5.3,3.8-11.6,11.8-11.6c8,0,11.8,6.3,11.8,11.7c0,5.4-3.8,11.7-11.8,11.7C82.9,40,79,33.7,79,28.3L79,28.3z
				 M85.6,28.4c0,3.2,2.4,5.5,5.3,5.5c2.8,0,5.3-2.3,5.3-5.5c0-3.2-2.4-5.5-5.3-5.5C88,22.8,85.6,25.1,85.6,28.4L85.6,28.4z"/>
			<path d="M104.8,10.1h6.6v29.3h-6.6V10.1z"/>
			<path d="M121.1,38.3L113,17.4h7l4.5,12.7l4.2-12.7h7l-11,29.3h-7L121.1,38.3z"/>
			<path d="M159.2,36.7c0,3.3-0.2,5.4-1.3,7.2c-1.7,2.8-5.7,5.2-11.1,5.2c-7.6,0-10.5-4.6-11-7.7h7.6c0.5,1.1,1.3,1.6,2.1,1.9
				c0.8,0.3,1.5,0.3,1.7,0.3c2.5,0,5.3-1.5,5.3-5.3c0-0.4,0-0.9,0-1.3c-0.8,1.3-2.7,3.1-6.1,3.1c-6,0-11.1-4.5-11.1-11.5
				c0-7.5,5.4-11.8,11.1-11.8c2.5,0,4.9,0.9,6.1,2.8c0-0.7,0-1.4,0-2.1h6.6V36.7z M142,28.3c0,3.5,2.5,5.6,5.3,5.6
				c1.6,0,2.9-0.6,3.8-1.5c0.9-0.9,1.5-2.3,1.5-3.8c0-1.6-0.5-3.1-1.4-4.1c-0.9-1.1-2.2-1.7-4-1.7C144.5,22.8,142,25.1,142,28.3
				L142,28.3z"/>
			<path d="M161.3,28.3c0-5.3,3.8-11.6,11.8-11.6c8,0,11.8,6.3,11.8,11.7c0,5.4-3.8,11.7-11.8,11.7C165.1,40,161.3,33.7,161.3,28.3
				L161.3,28.3z M167.8,28.4c0,3.2,2.4,5.5,5.3,5.5c2.9,0,5.3-2.3,5.3-5.5c0-3.2-2.4-5.5-5.3-5.5C170.2,22.8,167.8,25.1,167.8,28.4
				L167.8,28.4z"/>
			<path d="M186.2,17.4h6.1c0,0.8,0,1.5,0,2.3c0.8-1.1,2.1-3.1,6-3.1c7.4,0,8.1,6,8.1,9v13.7H200v-12c0-2.4-0.5-4.5-3.4-4.5
				c-3.2,0-3.8,2.3-3.8,4.6v11.9h-6.6V17.4z"/>
		</g>
		<g>
			<polygon class="st1" points="13.3,28.7 18.6,28.4 23.6,28.7 23.6,39 			"/>
			<polygon class="st2" points="23.6,28.7 13.3,28.7 13.3,18.4 18.5,23.4 			"/>
			<polygon class="st3" points="13.3,18.4 19.2,18.1 23.6,18.4 23.8,23.2 23.6,28.7 			"/>
			<polygon class="st4" points="23.6,28.7 23.6,18.4 28,18.1 33.9,18.4 			"/>
			<polygon points="23.6,8.1 23.8,13.7 23.6,18.4 13.3,18.4 			"/>
			<polygon class="st5" points="33.9,18.4 23.6,18.4 23.6,8.1 			"/>
		</g>
	</g>
	<circle class="st6" cx="23.6" cy="23.6" r="23.6"/>
</g>
</svg>
